# xmcd
#
# Track frame offsets: 
#        150
#        10149
#        20629
#        33126
#        44495
#        52907
#        63750
#        74021
#        86719
#        98902
#        107128
#        119214
#        130844
#        142138
#        153275
#        163438
#
# Disc length: 2297 seconds
#
# Revision: 2
# Processed by: cddbd v1.5.2PL0 Copyright (c) Steve Scherf et al.
# Submitted via: ExactAudioCopyFreeDBPlugin 1.0
#
DISCID=e608f710
DTITLE=Johnny Cash - Sings The Songs That Made Him Famous
DYEAR=1958
DGENRE=Country
TTITLE0=Ballad Of A Teenage Queen
TTITLE1=There You Go
TTITLE2=I Walk The Line
TTITLE3=Don't Make Me Go
TTITLE4=Guess Things Happen That Way
TTITLE5=Train Of Love
TTITLE6=The Ways Of A Woman In Love
TTITLE7=Next In Line
TTITLE8=You're The Nearest Thing To Heaven
TTITLE9=I Can't Help It (If I'm Still In Love With You)
TTITLE10=Home Of The Blues
TTITLE11=Big River
TTITLE12=Don't Make Me Go (Alternate Take)
TTITLE13=The Ways Of A Woman In Love (Alternate Take)
TTITLE14=Ballad Of A Teenage Queen (Undubbed Version)
TTITLE15=Guess Things Happen That Way (Undubbed Version)
EXTD=
EXTT0=
EXTT1=
EXTT2=
EXTT3=
EXTT4=
EXTT5=
EXTT6=
EXTT7=
EXTT8=
EXTT9=
EXTT10=
EXTT11=
EXTT12=
EXTT13=
EXTT14=
EXTT15=
PLAYORDER=
